<svg id="_x33_0" enable-background="new 0 0 62 62" height="512" viewBox="0 0 62 62" width="512" xmlns="http://www.w3.org/2000/svg"><g><g><g><path d="m36 47 3 14h-8l3-14z" fill="#e6e9ed"/></g><g><path d="m37.2 45.2-1.2 1.8h-2l-1.2-1.8 2.2-2.2z" fill="#ccd1d9"/></g><g><path d="m31 47 1.8-1.8 1.2 1.8-3 14h-6v-6l-4.84 3.23c-.76.5-1.65.77-2.55.77-2.55 0-4.61-2.06-4.61-4.61v-7.39h6v3l9.72-6.8z" fill="#ff826e"/></g><g><path d="m39 43c.94 0 1.84-.16 2.67-.46l-2.67 4.46-1.8-1.8-2.2-2.2z" fill="#fc6e51"/></g><g><path d="m39 47 2.67-4.46c.04-.01.07-.02.11-.04 4.28 2.01 7.52 5.85 8.72 10.5.33 1.28.5 2.62.5 4v4h-6-6l-3-14 1.2-1.8z" fill="#ff826e"/></g><g><path d="m32.8 45.2-1.8 1.8-2.28-3.8-.39-.66c.83.3 1.73.46 2.67.46h4z" fill="#fc6e51"/></g><g><path d="m61 11v4c-1.61.36-2.63 1.78-2.63 3.28 0 .6.17 1.22.53 1.79l-2.83 2.83c-1.96-1.25-4.56-.17-5.07 2.09 0-2.18.15-4.35.43-6.5 2.1-.94 3.57-3.04 3.57-5.49 0-3.31-2.69-6-6-6-1.55 0-2.95.59-4.02 1.56-2.18-.96-4.54-1.5-6.95-1.55v-.01l3.9-3.9c.57.36 1.19.53 1.79.53 1.5 0 2.92-1.02 3.28-2.63h4c.36 1.61 1.78 2.63 3.28 2.63.6 0 1.22-.17 1.79-.53l2.83 2.83c-.36.57-.53 1.19-.53 1.79 0 1.5 1.02 2.92 2.63 3.28z" fill="#fcd770"/></g><g><path d="m51 25.1v4.9c0-1.66-1.34-3-3-3h-1c0-2.21-1.79-4-4-4h-10c-1.77 0-3.37-.77-4.47-2h-1.53c-2.21 0-4 1.79-4 4v2h-1c-1.66 0-3 1.34-3 3v-4.9c0-.61-.01-1.22-.03-1.83 1.3-1.81 2.03-3.99 2.03-6.27v-7c1.64-.98 3.39-1.73 5.21-2.24 1.83-.5 3.71-.76 5.62-.76h1.17l2 2 2-2h.6c.14 0 .29 0 .43.01 2.41.05 4.77.59 6.95 1.55 1.43.63 2.78 1.45 4.02 2.44v5l3-1c-.23 1.16-.42 2.32-.57 3.49-.28 2.15-.43 4.32-.43 6.5v.01z" fill="#656d78"/></g><g><path d="m7 31h8c0 .45-.08.89-.22 1.29-.19.59-.52 1.11-.95 1.54-.73.72-1.73 1.17-2.83 1.17-2.21 0-4-1.79-4-4z" fill="#aab2bd"/></g><g><path d="m13 27h2v4h-8v-4h2z" fill="#ccd1d9"/></g><g><path d="m18.07 9.93c-1.81-1.81-4.31-2.93-7.07-2.93s-5.26 1.12-7.07 2.93-2.93 4.31-2.93 7.07c0 1.58.35 3.13 1.01 4.53.65 1.4 1.61 2.65 2.83 3.67l2.16 1.8h2 4 2l2.16-1.8c.69-.58 1.29-1.22 1.81-1.93 1.3-1.81 2.03-3.99 2.03-6.27 0-2.76-1.12-5.26-2.93-7.07z" fill="#ffeaa7"/></g><g><path d="m16.41 15.59c.37.36.59.86.59 1.41s-.22 1.05-.59 1.41c-.36.37-.86.59-1.41.59h-2v-2c0-1.1.9-2 2-2 .55 0 1.05.22 1.41.59z" fill="#fcd770"/></g><g><path d="m9 17v2h-2c-1.1 0-2-.9-2-2 0-.55.22-1.05.59-1.41.36-.37.86-.59 1.41-.59s1.05.22 1.41.59c.37.36.59.86.59 1.41z" fill="#fcd770"/></g><g><path d="m19 39v4h-2c-.55 0-1.05-.22-1.41-.59-.37-.36-.59-.86-.59-1.41 0-1.1.9-2 2-2z" fill="#f0d0b4"/></g><g><path d="m17 39c-1.1 0-2 .9-2 2 0 .55.22 1.05.59 1.41.36.37.86.59 1.41.59h2v4h-6l-1.82-4.55c-.12-.3-.18-.61-.18-.93 0-1.39 1.13-2.52 2.52-2.52h1.48z" fill="#f0d0b4"/></g><g><path d="m19 33v6h-2-2v-6c0-.21.03-.41.09-.59.1-.32.27-.59.5-.82.36-.37.86-.59 1.41-.59 1.1 0 2 .9 2 2z" fill="#f0d0b4"/></g><g><path d="m48 27c1.66 0 3 1.34 3 3 0 .83-.34 1.58-.88 2.12s-1.29.88-2.12.88h-1v-6z" fill="#f0d0b4"/></g><g><path d="m47 33v2c0 3.44-2.17 6.37-5.22 7.5-.04.02-.07.03-.11.04-.83.3-1.73.46-2.67.46h-4-4c-.94 0-1.84-.16-2.67-.46-3.11-1.1-5.33-4.06-5.33-7.54v-2-6-2c0-2.21 1.79-4 4-4h1.53c1.1 1.23 2.7 2 4.47 2h10c2.21 0 4 1.79 4 4z" fill="#f0d0b4"/></g><g><path d="m23 27v6h-1c-.83 0-1.58-.34-2.12-.88s-.88-1.29-.88-2.12c0-1.66 1.34-3 3-3z" fill="#f0d0b4"/></g><g><path d="m31 35h8c0 1.1-.45 2.1-1.17 2.83-.73.72-1.73 1.17-2.83 1.17-2.21 0-4-1.79-4-4z" fill="#ff826e"/></g><g><circle cx="41" cy="29" fill="#969faa" r="2"/></g><g><circle cx="29" cy="29" fill="#969faa" r="2"/></g></g><g><path d="m32 29c0-1.654-1.346-3-3-3s-3 1.346-3 3 1.346 3 3 3 3-1.346 3-3zm-3 1c-.552 0-1-.449-1-1s.448-1 1-1 1 .449 1 1-.448 1-1 1z"/><path d="m41 26c-1.654 0-3 1.346-3 3s1.346 3 3 3 3-1.346 3-3-1.346-3-3-3zm0 4c-.552 0-1-.449-1-1s.448-1 1-1 1 .449 1 1-.448 1-1 1z"/><path d="m30 35c0 2.757 2.243 5 5 5s5-2.243 5-5v-1h-10zm7.829 1c-.413 1.164-1.525 2-2.829 2s-2.416-.836-2.829-2z"/><path d="m32 17v-1h-2v1c0 1.654 1.346 3 3 3h9v-2h-9c-.552 0-1-.449-1-1z"/><path d="m10 0h2v4h-2z"/><path d="m14.74 2.142h4v2h-4z" transform="matrix(.383 -.924 .924 .383 7.429 17.404)"/><path d="m4.26 1.142h2v4h-2z" transform="matrix(.924 -.383 .383 .924 -.802 2.253)"/><path d="m61.217 10.024c-.759-.169-1.364-.677-1.662-1.396-.298-.718-.229-1.506.188-2.163l.431-.677-3.963-3.962-.677.431c-.655.418-1.444.486-2.163.188-.718-.297-1.227-.903-1.395-1.662l-.173-.783h-5.605l-.174.783c-.168.759-.677 1.365-1.395 1.662-.718.298-1.507.229-2.163-.188l-.677-.431-4.175 4.175c-.005 0-.011-.001-.017-.001h-1.011l-1.586 1.586-1.586-1.586h-1.583c-3.996 0-7.919 1.086-11.346 3.143l-.485.291v1.262c-1.992-2.835-5.28-4.696-9-4.696-6.065 0-11 4.935-11 11 0 3.476 1.531 6.745 4.2 8.969l1.8 1.5v3.531c0 2.757 2.243 5 5 5 1.13 0 2.162-.391 3-1.026v3.026h-.484c-1.939 0-3.516 1.577-3.516 3.516 0 .447.084.886.251 1.306l1.749 4.37v7.202c0 3.091 2.515 5.606 5.605 5.606 1.11 0 2.186-.326 3.109-.941l3.286-2.191v5.132h28v-5c0-1.017-.103-2.018-.28-3h2.28v-2h-2.765c-1.21-3.901-3.802-7.29-7.324-9.467 2.458-1.609 4.089-4.382 4.089-7.533v-1c2.206 0 4-1.794 4-4v-4.85c.183-.726.676-1.307 1.371-1.595.719-.297 1.508-.229 2.163.188l.677.431 3.963-3.963-.431-.677c-.417-.655-.486-1.443-.188-2.162.297-.718.903-1.227 1.662-1.396l.783-.174v-5.604zm-55.736 14.409c-2.212-1.844-3.481-4.553-3.481-7.433 0-4.962 4.037-9 9-9s9 4.038 9 9c0 2.88-1.269 5.589-3.481 7.433l-1.881 1.567h-.638v-6h1c1.654 0 3-1.346 3-3s-1.346-3-3-3-3 1.346-3 3v1h-2v-1c0-1.654-1.346-3-3-3s-3 1.346-3 3 1.346 3 3 3h1v6h-.638zm29.327 23.567h.384l2.571 12h-5.527zm.657-2h-.93l-.448-.672.913-.914.913.913zm1.949-2h1.586c.221 0 .437-.017.654-.033l-.852 1.42zm-6.216 1.387-.852-1.42c.217.016.433.033.654.033h1.586zm-14.198-5.387h1v2h-1c-.552 0-1-.449-1-1s.448-1 1-1zm-9-12h6v2h-6zm0-10h-1c-.552 0-1-.449-1-1s.448-1 1-1 1 .449 1 1zm4 8h-2v-6h2zm6-.218v4.218c0 .065.016.126.019.19-.319-.116-.66-.19-1.019-.19-.352 0-.686.072-1 .184v-2.716l1.8-1.5c.07-.058.131-.125.2-.186zm2 7.662c.591.344 1.268.556 2 .556v1c0 3.568 2.092 6.648 5.109 8.103l-7.109 4.976zm2-1.444c-1.103 0-2-.897-2-2s.897-2 2-2zm-8-14v-1c0-.551.448-1 1-1s1 .449 1 1-.448 1-1 1zm-3 16c-1.302 0-2.402-.839-2.816-2h5.631c-.413 1.161-1.513 2-2.815 2zm5-1c0-.551.448-1 1-1s1 .449 1 1v5h-2zm-4 8.516c0-.836.68-1.516 1.516-1.516h.669c-.113.314-.185.648-.185 1 0 1.654 1.346 3 3 3h1v2h-4.323l-1.568-3.92c-.073-.182-.109-.372-.109-.564zm12 8.484v4.465l-4.395 2.93c-.595.396-1.286.605-2 .605-1.988 0-3.605-1.617-3.605-3.605v-6.395h4v6h2v-3.479l8.413-5.889 2.389 3.981 1.843-1.843.289.434-2.742 12.796h-4.192v-10zm26 7v3h-4v-10h-2v10h-4.192l-2.742-12.796.289-.434 1.843 1.843 2.895-4.825c4.827 2.599 7.907 7.694 7.907 13.212zm-4-22c0 3.86-3.141 7-7 7h-8c-3.859 0-7-3.14-7-7v-10c0-1.654 1.346-3 3-3h1.105c1.264 1.237 2.991 2 4.895 2h10c1.654 0 3 1.346 3 3zm-3-13h-10c-2.757 0-5-2.243-5-5v-1h-2v1c0 1.077.244 2.098.681 3.01-2.609.165-4.681 2.34-4.681 4.99v1c-.732 0-1.409.212-2 .556v-1.457c0-.517-.012-1.034-.028-1.55 1.301-1.912 2.028-4.178 2.028-6.549v-6.425c2.998-1.686 6.385-2.575 9.831-2.575h.755l2.414 2.414 2.414-2.414h.183c3.745 0 7.42 1.236 10.403 3.489v5.898l2.712-.904c-.473 2.845-.712 5.736-.712 8.616v1.457c-.591-.344-1.268-.556-2-.556h-.101c-.465-2.279-2.485-4-4.899-4zm7-7.387v-4.093l-.375-.3c-.833-.667-1.72-1.258-2.647-1.774.633-.282 1.316-.446 2.022-.446 2.757 0 5 2.243 5 5 0 1.212-.444 2.354-1.202 3.242.062-.349.113-.699.182-1.046l.338-1.69zm-2 17.387v-4c1.103 0 2 .897 2 2s-.897 2-2 2zm12-17.722c-1.027.445-1.857 1.275-2.293 2.329-.437 1.053-.438 2.227-.025 3.269l-1.807 1.807c-1.04-.412-2.215-.411-3.27.025-.171.071-.336.154-.495.245.059-.948.148-1.894.261-2.838 2.217-1.227 3.629-3.555 3.629-6.115 0-3.86-3.141-7-7-7-1.53 0-3.005.499-4.215 1.414-1.458-.587-2.982-.996-4.542-1.214l1.882-1.882c1.041.413 2.216.412 3.27-.025 1.052-.437 1.882-1.266 2.328-2.293h2.555c.445 1.027 1.275 1.856 2.328 2.293 1.053.436 2.228.438 3.27.025l1.807 1.807c-.412 1.042-.411 2.215.025 3.269.436 1.053 1.266 1.884 2.293 2.329v2.555z"/><path d="m52 38h4v2h-4z"/><path d="m56 34h2v4h-2z"/><path d="m58 38h4v2h-4z"/><path d="m56 40h2v4h-2z"/><path d="m54 48h2v4h-2z"/><path d="m56 52h4v2h-4z"/><path d="m54 54h2v4h-2z"/><path d="m0 56h4v2h-4z"/><path d="m4 52h2v4h-2z"/><path d="m6 56h4v2h-4z"/><path d="m4 58h2v4h-2z"/><path d="m0 44h2v2h-2z"/><path d="m2 42h2v2h-2z"/><path d="m4 44h2v2h-2z"/><path d="m2 46h2v2h-2z"/></g></g></svg>