<svg width="33" height="34" viewBox="0 0 33 34" fill="none" xmlns="http://www.w3.org/2000/svg">
<path d="M16.5 31.1665C18.0125 31.1665 19.25 29.8915 19.25 28.3332H13.75C13.75 29.8915 14.9875 31.1665 16.5 31.1665ZM24.75 22.6665V15.5832C24.75 11.234 22.5087 7.59317 18.5625 6.62984V5.6665C18.5625 4.49067 17.6412 3.5415 16.5 3.5415C15.3587 3.5415 14.4375 4.49067 14.4375 5.6665V6.62984C10.505 7.59317 8.25 11.2198 8.25 15.5832V22.6665L5.5 25.4998V26.9165H27.5V25.4998L24.75 22.6665ZM22 24.0832H11V15.5832C11 12.0698 13.0762 9.20817 16.5 9.20817C19.9237 9.20817 22 12.0698 22 15.5832V24.0832Z" fill="#28527A"/>
</svg>
