<svg width="30" height="30" viewBox="0 0 30 30" fill="none" xmlns="http://www.w3.org/2000/svg">
<g clip-path="url(#clip0)">
<path d="M7.99984 6.50044V4.50048C7.99984 4.22436 7.77597 4.00049 7.49985 4.00049H0.49999C0.223872 4.00049 0 4.22436 0 4.50048V6.50044H7.99984Z" fill="white"/>
<path d="M0 7.50049V24.0002H7.99984V7.50049H0ZM5.99988 14.0004H1.99996C1.72384 14.0004 1.49997 13.7765 1.49997 13.5004V9.50045C1.49997 9.22433 1.72384 9.00046 1.99996 9.00046H5.99988C6.276 9.00046 6.49987 9.22433 6.49987 9.50045V13.5004C6.49987 13.7765 6.276 14.0004 5.99988 14.0004Z" fill="white"/>
<path d="M0 27V29.4999C0 29.7761 0.223872 29.9999 0.49999 29.9999H7.49985C7.77597 29.9999 7.99984 29.7761 7.99984 29.4999V27H0Z" fill="white"/>
<path d="M0 25H7.99984V26H0V25Z" fill="white"/>
<path d="M8.99976 25H15.4996V26H8.99976V25Z" fill="white"/>
<path d="M15.4996 2.00045V0.500479C15.4996 0.224361 15.2758 0.000488281 14.9996 0.000488281H9.49975C9.22363 0.000488281 8.99976 0.224361 8.99976 0.500479V2.00045H15.4996Z" fill="white"/>
<path d="M8.99976 5.50049H15.4996V24.0001H8.99976V5.50049Z" fill="white"/>
<path d="M8.99976 27V29.4999C8.99976 29.7761 9.22363 29.9999 9.49975 29.9999H14.9996C15.2758 29.9999 15.4996 29.7761 15.4996 29.4999V27H8.99976Z" fill="white"/>
<path d="M8.99976 3.00049H15.4996V4.50046H8.99976V3.00049Z" fill="white"/>
<path d="M16.4878 10.3542L16.7554 11.3813L25.223 9.12327L24.9552 8.09619L16.4878 10.3542Z" fill="white"/>
<path d="M20.666 26.372L29.1334 24.114L28.5973 22.0586L20.1294 24.3166L20.666 26.372Z" fill="white"/>
<path d="M28.345 21.0906L25.4757 10.0908L17.0078 12.3488L19.8771 23.3486L28.345 21.0906Z" fill="white"/>
<path d="M16.2353 9.38715L24.7024 7.12939L23.9847 4.37578C23.9107 4.10919 23.6383 3.94977 23.3697 4.01593L15.8699 6.01588C15.605 6.08839 15.447 6.35963 15.5147 6.62573L16.2353 9.38715Z" fill="white"/>
<path d="M29.3858 25.0811L20.918 27.3391L21.5144 29.6249C21.5491 29.7538 21.6335 29.8637 21.7495 29.9301C21.8249 29.9757 21.9114 29.9999 21.9995 29.9999C22.0432 29.9999 22.0869 29.9948 22.1294 29.985L29.6292 27.9851C29.8941 27.9126 30.0521 27.6411 29.9845 27.375L29.3858 25.0811Z" fill="white"/>
</g>
<defs>
<clipPath id="clip0">
<rect width="30" height="30" fill="white"/>
</clipPath>
</defs>
</svg>
