<svg width="30" height="30" viewBox="0 0 30 30" fill="none" xmlns="http://www.w3.org/2000/svg">
<path d="M27.3633 3.51562H24.6181C24.5338 2.77176 24.3432 2.08122 24.0603 1.51543C23.5716 0.53833 22.8511 0 22.0312 0C21.2114 0 20.4909 0.53833 20.0022 1.51543C19.7193 2.08122 19.5287 2.77176 19.4444 3.51562H17.5868C17.5026 2.77176 17.3119 2.08122 17.029 1.51543C16.5404 0.53833 15.8199 0 15 0C14.1801 0 13.4596 0.53833 12.971 1.51543C12.6881 2.08122 12.4974 2.77176 12.4132 3.51562H10.5556C10.4713 2.77176 10.2807 2.08122 9.99779 1.51543C9.50912 0.53833 8.7886 0 7.96875 0C7.1489 0 6.42838 0.53833 5.93971 1.51543C5.65681 2.08122 5.46616 2.77176 5.38193 3.51562H2.63672C1.18286 3.51562 0 4.69849 0 6.15234V27.3633C0 28.8171 1.18286 30 2.63672 30H27.3633C28.8171 30 30 28.8171 30 27.3633V6.15234C30 4.69849 28.8171 3.51562 27.3633 3.51562ZM21.5744 2.30164C21.7992 1.85234 22.0008 1.75781 22.0312 1.75781C22.0617 1.75781 22.2633 1.85234 22.4881 2.30164C22.6547 2.63466 22.7769 3.05489 22.8458 3.51562H21.2167C21.2856 3.05489 21.408 2.63466 21.5744 2.30164ZM14.5432 2.30164C14.7679 1.85234 14.9696 1.75781 15 1.75781C15.0304 1.75781 15.2321 1.85234 15.4568 2.30164C15.6232 2.63466 15.7457 3.05489 15.8146 3.51562H14.1854C14.2543 3.05489 14.3768 2.63466 14.5432 2.30164ZM7.5119 2.30164C7.73666 1.85234 7.93831 1.75781 7.96875 1.75781C7.99919 1.75781 8.20084 1.85234 8.4256 2.30164C8.592 2.63466 8.71445 3.05489 8.78334 3.51562H7.15416C7.22305 3.05489 7.3455 2.63466 7.5119 2.30164ZM2.63672 5.27344H8.78334C8.71445 5.73418 8.592 6.1544 8.4256 6.48743C8.20084 6.93672 7.99919 7.03125 7.96875 7.03125C7.48329 7.03125 7.08984 7.4247 7.08984 7.91016C7.08984 8.39561 7.48329 8.78906 7.96875 8.78906C8.7886 8.78906 9.50912 8.25073 9.99779 7.27364C10.2807 6.70784 10.4713 6.0173 10.5556 5.27344H15.8146C15.7457 5.73418 15.6232 6.1544 15.4568 6.48743C15.2321 6.93672 15.0304 7.03125 15 7.03125C14.5145 7.03125 14.1211 7.4247 14.1211 7.91016C14.1211 8.39561 14.5145 8.78906 15 8.78906C15.8199 8.78906 16.5404 8.25073 17.029 7.27364C17.3119 6.70784 17.5026 6.0173 17.5868 5.27344H22.8458C22.7769 5.73418 22.6545 6.1544 22.4881 6.48743C22.2633 6.93672 22.0617 7.03125 22.0312 7.03125C21.5458 7.03125 21.1523 7.4247 21.1523 7.91016C21.1523 8.39561 21.5458 8.78906 22.0312 8.78906C22.8511 8.78906 23.5716 8.25073 24.0603 7.27364C24.3432 6.70784 24.5338 6.0173 24.6181 5.27344H27.3633C27.8478 5.27344 28.2422 5.6678 28.2422 6.15234V10.6055H1.75781V6.15234C1.75781 5.6678 2.15218 5.27344 2.63672 5.27344ZM27.3633 28.2422H2.63672C2.15218 28.2422 1.75781 27.8478 1.75781 27.3633V12.3633H28.2422V27.3633C28.2422 27.8478 27.8478 28.2422 27.3633 28.2422Z" fill="white"/>
<path d="M25.5469 13.6665H4.45312C3.96767 13.6665 3.57422 14.06 3.57422 14.5454V25.1509C3.57422 25.6363 3.96767 26.0298 4.45312 26.0298H25.5469C26.0323 26.0298 26.4258 25.6363 26.4258 25.1509V14.5454C26.4258 14.06 26.0323 13.6665 25.5469 13.6665ZM24.668 18.9399H21.1523V15.4243H24.668V18.9399ZM14.1211 20.6978V24.272H10.6055V20.6978H14.1211ZM10.6055 18.9399V15.4243H14.1211V18.9399H10.6055ZM15.8789 20.6978H19.3945V24.272H15.8789V20.6978ZM15.8789 18.9399V15.4243H19.3945V18.9399H15.8789ZM8.84766 15.4243V18.9399H5.33203V15.4243H8.84766ZM5.33203 20.6978H8.84766V24.272H5.33203V20.6978ZM21.1523 24.272V20.6978H24.668V24.272H21.1523Z" fill="white"/>
</svg>
