<svg width="30" height="30" viewBox="0 0 30 30" fill="none" xmlns="http://www.w3.org/2000/svg">
<g clip-path="url(#clip0)">
<path d="M10.2832 8.49609H5.5957C5.11031 8.49609 4.7168 8.88961 4.7168 9.375C4.7168 9.86039 5.11031 10.2539 5.5957 10.2539H10.2832C10.7686 10.2539 11.1621 9.86039 11.1621 9.375C11.1621 8.88961 10.7686 8.49609 10.2832 8.49609Z" fill="white"/>
<path d="M10.2832 13.1836H5.5957C5.11031 13.1836 4.7168 13.5771 4.7168 14.0625C4.7168 14.5479 5.11031 14.9414 5.5957 14.9414H10.2832C10.7686 14.9414 11.1621 14.5479 11.1621 14.0625C11.1621 13.5771 10.7686 13.1836 10.2832 13.1836Z" fill="white"/>
<path d="M10.2832 17.8711H5.5957C5.11031 17.8711 4.7168 18.2646 4.7168 18.75C4.7168 19.2354 5.11031 19.6289 5.5957 19.6289H10.2832C10.7686 19.6289 11.1621 19.2354 11.1621 18.75C11.1621 18.2646 10.7686 17.8711 10.2832 17.8711Z" fill="white"/>
<path d="M22.8809 16.1091V8.08477C22.8809 6.92637 22.4342 5.83354 21.6231 5.00701L18.057 1.31918C18.0553 1.31742 18.0536 1.31561 18.0519 1.31385C17.2308 0.478887 16.0883 0 14.9174 0H3.60352C2.14963 0 0.966797 1.18283 0.966797 2.63672V25.4297C0.966797 26.8836 2.14963 28.0664 3.60352 28.0664H17.1875C18.44 29.2637 20.1366 30 22.002 30C25.879 30 29.0332 26.8721 29.0332 23.0273C29.0332 19.4777 26.3446 16.5393 22.8809 16.1091ZM2.72461 25.4297V2.63672C2.72461 2.15209 3.11889 1.75781 3.60352 1.75781H14.9174C15.619 1.75781 16.3036 2.04439 16.7963 2.54402L20.3617 6.23127C20.3634 6.23303 20.3651 6.23479 20.3668 6.23648C20.8545 6.7326 21.123 7.38897 21.123 8.08482V16.1099C17.6917 16.5434 15.0293 19.4803 15.0293 23.0274C15.0293 24.2129 15.3271 25.3301 15.8512 26.3087H3.60352C3.11889 26.3086 2.72461 25.9143 2.72461 25.4297ZM22.002 28.2422C19.1265 28.2422 16.7871 25.9028 16.7871 23.0273C16.7871 20.1519 19.1265 17.8125 22.002 17.8125C24.9097 17.8125 27.2754 20.1519 27.2754 23.0273C27.2754 25.9028 24.9097 28.2422 22.002 28.2422Z" fill="white"/>
<path d="M24.0294 20.9458C23.6566 20.6352 23.1023 20.6856 22.7916 21.0584L21.3081 22.8385L20.9716 22.1655C20.7545 21.7313 20.2266 21.5553 19.7924 21.7725C19.3583 21.9895 19.1823 22.5175 19.3994 22.9516L20.3369 24.8266C20.4695 25.0919 20.7271 25.2724 21.0217 25.3066C21.0556 25.3105 21.0894 25.3125 21.1231 25.3125C21.3821 25.3125 21.6302 25.1979 21.7982 24.9962L24.142 22.1837C24.4527 21.8107 24.4023 21.2566 24.0294 20.9458Z" fill="white"/>
<path d="M14.9707 10.2539H15.9082C16.3936 10.2539 16.7871 9.86039 16.7871 9.375C16.7871 8.88961 16.3936 8.49609 15.9082 8.49609H14.9707C14.4853 8.49609 14.0918 8.88961 14.0918 9.375C14.0918 9.86039 14.4853 10.2539 14.9707 10.2539Z" fill="white"/>
<path d="M16.7871 14.0625C16.7871 13.5771 16.3936 13.1836 15.9082 13.1836H14.9707C14.4853 13.1836 14.0918 13.5771 14.0918 14.0625C14.0918 14.5479 14.4853 14.9414 14.9707 14.9414H15.9082C16.3936 14.9414 16.7871 14.5479 16.7871 14.0625Z" fill="white"/>
</g>
<defs>
<clipPath id="clip0">
<rect width="30" height="30" fill="white"/>
</clipPath>
</defs>
</svg>
