<svg width="24" height="23" viewBox="0 0 24 23" fill="none" xmlns="http://www.w3.org/2000/svg">
<path d="M17.9325 10.4837C17.811 10.2264 17.544 10.0625 17.25 10.0625H14.25V0.71875C14.25 0.322 13.914 0 13.5 0H10.5C10.086 0 9.74997 0.322 9.74997 0.71875V10.0625H6.74997C6.45597 10.0625 6.18897 10.2278 6.06747 10.4837C5.94447 10.741 5.99247 11.0414 6.18597 11.2542L11.436 17.0042C11.5785 17.1609 11.784 17.25 12 17.25C12.216 17.25 12.4215 17.1594 12.564 17.0042L17.814 11.2542C18.009 11.0429 18.054 10.741 17.9325 10.4837Z" fill="#28527A"/>
<path d="M20.25 15.8125V20.125H3.75V15.8125H0.75V21.5625C0.75 22.3574 1.422 23 2.25 23H21.75C22.5795 23 23.25 22.3574 23.25 21.5625V15.8125H20.25Z" fill="#28527A"/>
</svg>
