<svg width="20" height="17" viewBox="0 0 20 17" fill="none" xmlns="http://www.w3.org/2000/svg">
<g clip-path="url(#clip0)">
<path d="M19.3745 7.96921H11.458C11.1131 7.96921 10.8331 7.73122 10.8331 7.43798C10.8331 7.14473 11.1131 6.90674 11.458 6.90674H19.3745C19.7195 6.90674 19.9995 7.14473 19.9995 7.43798C19.9995 7.73122 19.7195 7.96921 19.3745 7.96921Z" fill="white"/>
<path d="M16.2497 10.6251C16.0896 10.6251 15.9297 10.5734 15.808 10.4693C15.5638 10.2617 15.5638 9.92526 15.808 9.71775L18.4913 7.43705L15.808 5.15621C15.5638 4.9487 15.5638 4.61227 15.808 4.40476C16.0523 4.19711 16.4481 4.19711 16.6922 4.40476L19.8171 7.06093C20.0612 7.26844 20.0612 7.60487 19.8171 7.81239L16.6922 10.4686C16.5697 10.5734 16.4098 10.6251 16.2497 10.6251Z" fill="white"/>
<path d="M6.66651 16.9995C6.48814 16.9995 6.31892 16.9782 6.14986 16.9336L1.13491 15.5134C0.452562 15.3108 0 14.7704 0 14.1663V1.41667C0 0.635379 0.747505 0 1.66667 0C1.84488 0 2.0141 0.0212701 2.18331 0.0658854L7.19811 1.48605C7.88061 1.68864 8.33302 2.22908 8.33302 2.8332V15.5828C8.33302 16.3641 7.58567 16.9995 6.66651 16.9995ZM1.66667 1.06247C1.43749 1.06247 1.24996 1.22186 1.24996 1.41667V14.1663C1.24996 14.3171 1.36913 14.4573 1.53911 14.5076L6.53056 15.9214C6.56641 15.9313 6.6131 15.937 6.66651 15.937C6.89569 15.937 7.08306 15.7776 7.08306 15.5828V2.8332C7.08306 2.68237 6.96389 2.54216 6.79392 2.49184L1.80246 1.07803C1.76661 1.06817 1.71992 1.06247 1.66667 1.06247Z" fill="white"/>
<path d="M12.708 5.66702C12.363 5.66702 12.083 5.42903 12.083 5.13579V1.94839C12.083 1.46034 11.6157 1.06296 11.0415 1.06296H1.66679C1.3218 1.06296 1.04181 0.824964 1.04181 0.531722C1.04181 0.23848 1.3218 0.000488281 1.66679 0.000488281H11.0415C12.3056 0.000488281 13.333 0.873859 13.333 1.94839V5.13579C13.333 5.42903 13.053 5.66702 12.708 5.66702Z" fill="white"/>
<path d="M11.0416 14.875H7.70823C7.36324 14.875 7.08325 14.637 7.08325 14.3438C7.08325 14.0505 7.36324 13.8126 7.70823 13.8126H11.0416C11.6157 13.8126 12.0831 13.4152 12.0831 12.9271V9.73973C12.0831 9.44649 12.3631 9.2085 12.7081 9.2085C13.0531 9.2085 13.3331 9.44649 13.3331 9.73973V12.9271C13.3331 14.0016 12.3057 14.875 11.0416 14.875Z" fill="white"/>
</g>
<defs>
<clipPath id="clip0">
<rect width="20" height="17" fill="white"/>
</clipPath>
</defs>
</svg>
