<svg width="28" height="31" viewBox="0 0 28 31" fill="none" xmlns="http://www.w3.org/2000/svg">
<path d="M21 20.7702C20.1133 20.7702 19.32 21.1577 18.7133 21.7647L10.395 16.4043C10.4533 16.1072 10.5 15.8102 10.5 15.5002C10.5 15.1902 10.4533 14.8931 10.395 14.596L18.62 9.28725C19.25 9.93308 20.0783 10.3335 21 10.3335C22.9367 10.3335 24.5 8.60266 24.5 6.4585C24.5 4.31433 22.9367 2.5835 21 2.5835C19.0633 2.5835 17.5 4.31433 17.5 6.4585C17.5 6.7685 17.5467 7.06558 17.605 7.36266L9.38 12.6714C8.75 12.0256 7.92167 11.6252 7 11.6252C5.06333 11.6252 3.5 13.356 3.5 15.5002C3.5 17.6443 5.06333 19.3752 7 19.3752C7.92167 19.3752 8.75 18.9747 9.38 18.3289L17.6867 23.7022C17.6283 23.9735 17.5933 24.2577 17.5933 24.5418C17.5933 26.6214 19.1217 28.3135 21 28.3135C22.8783 28.3135 24.4067 26.6214 24.4067 24.5418C24.4067 22.4622 22.8783 20.7702 21 20.7702Z" fill="white"/>
</svg>
