<svg width="31" height="31" viewBox="0 0 31 31" fill="none" xmlns="http://www.w3.org/2000/svg">
<path d="M15.5 0C12.4951 0 10.0508 2.50488 10.0508 5.50977C10.0508 8.51465 12.4951 10.959 15.5 10.959C18.5049 10.959 20.9492 8.51465 20.9492 5.50977C20.9492 2.50488 18.5049 0 15.5 0Z" fill="white"/>
<path d="M17.3164 10.959H15.5H13.6836C12.4026 10.959 11.1647 11.2901 10.0393 11.8534C11.9507 12.3692 13.7504 13.112 15.5 14.1162C17.2497 13.112 19.0493 12.3692 20.9608 11.8534C19.8354 11.2901 18.5975 10.959 17.3164 10.959Z" fill="white"/>
<path d="M29.1836 16.4082C28.1804 16.4082 27.3672 17.2214 27.3672 18.2246V21.8574C27.3672 22.8605 28.1804 23.6738 29.1836 23.6738C30.1868 23.6738 31 22.8605 31 21.8574V18.2246C31 17.2214 30.1868 16.4082 29.1836 16.4082Z" fill="white"/>
<path d="M1.81641 16.4082C0.813205 16.4082 0 17.2214 0 18.2246V21.8574C0 22.8605 0.813205 23.6738 1.81641 23.6738C2.81961 23.6738 3.63281 22.8605 3.63281 21.8574V18.2246C3.63281 17.2214 2.81961 16.4082 1.81641 16.4082Z" fill="white"/>
<path d="M2.72461 12.7754C2.22262 12.7754 1.81641 13.1816 1.81641 13.6836V14.5918C3.81996 14.5918 5.44922 16.2211 5.44922 18.2246V21.8574C5.44922 23.861 3.81996 25.4902 1.81641 25.4902V26.3984C1.81641 26.9004 2.22262 27.3066 2.72461 27.3066C7.38072 27.3066 11.1037 28.7771 14.5918 31V15.7176C11.0879 13.7087 7.3203 12.7754 2.72461 12.7754Z" fill="white"/>
<path d="M29.1836 14.5918V13.6836C29.1836 13.1816 28.7774 12.7754 28.2754 12.7754C23.6797 12.7754 19.9121 13.7087 16.4082 15.7176V31C19.8963 28.7771 23.6193 27.3066 28.2754 27.3066C28.7774 27.3066 29.1836 26.9004 29.1836 26.3984V25.4902C27.18 25.4902 25.5508 23.861 25.5508 21.8574V18.2246C25.5508 16.2211 27.18 14.5918 29.1836 14.5918Z" fill="white"/>
</svg>
