<svg height="512" viewBox="0 0 64 64" width="512" xmlns="http://www.w3.org/2000/svg"><g id="Filled_outline" data-name="Filled outline"><path d="m42 61h-20v-20a4 4 0 0 1 4-4h12a4 4 0 0 1 4 4z" fill="#ffd782"/><path d="m22 57a4 4 0 0 1 0-8z" fill="#f9bb4b"/><path d="m42 49a4 4 0 0 1 0 8z" fill="#f9bb4b"/><path d="m28 43s1 4 4 6l1-6s2 3 4 4l1-3 4 4v-7a4 4 0 0 0 -4-4h-12a4 4 0 0 0 -4 4v7a16.654 16.654 0 0 1 6-5z" fill="#394d5c"/><path d="m34 15a12 12 0 0 1 24 0 12.383 12.383 0 0 1 -11 12c-3 5-9 4-9 4 3-3 3-5 3-5-4.392-1.783-7-5.968-7-11z" fill="#f9bb4b"/><path d="m30 17a12 12 0 0 0 -24 0 12.383 12.383 0 0 0 11 12c3 5 9 4 9 4-3-3-3-5-3-5 4.392-1.783 7-5.968 7-11z" fill="#55b56a"/><path d="m43 62v-4.1a5 5 0 0 0 0-9.8v-7.1a5.006 5.006 0 0 0 -5-5h-12a5.006 5.006 0 0 0 -5 5v7.1a5 5 0 0 0 0 9.8v4.1zm0-11.829a3 3 0 0 1 0 5.658zm-20-9.171a3 3 0 0 1 3-3h12a3 3 0 0 1 3 3v4.586l-2.293-2.293a1 1 0 0 0 -1.655.391l-.586 1.755a16.039 16.039 0 0 1 -2.634-2.994 1 1 0 0 0 -1.818.39l-.708 4.249a11.478 11.478 0 0 1 -2.336-4.328 1 1 0 0 0 -1.417-.651 18.4 18.4 0 0 0 -4.553 3.235zm0 7.329a15.959 15.959 0 0 1 4.429-3.877 11.483 11.483 0 0 0 4.016 5.38 1 1 0 0 0 .555.168.978.978 0 0 0 .4-.083 1 1 0 0 0 .589-.752l.625-3.751a10.657 10.657 0 0 0 2.939 2.486 1 1 0 0 0 1.4-.579l.489-1.465 2.558 2.558v11.586h-18zm-4 4.671a3.006 3.006 0 0 1 2-2.829v5.658a3.006 3.006 0 0 1 -2-2.829z"/><path d="m31 54h2v4h-2z"/><path d="m26 50h2v2h-2z"/><path d="m36 50h2v2h-2z"/><path d="m39.855 26.583a10 10 0 0 1 -2.562 3.71 1 1 0 0 0 .543 1.693 9.431 9.431 0 0 0 1.455.1 9.714 9.714 0 0 0 8.3-4.154 13.358 13.358 0 0 0 11.409-12.932 13 13 0 0 0 -26 0 12.541 12.541 0 0 0 6.855 11.583zm6.145-22.583a11.013 11.013 0 0 1 11 11 11.34 11.34 0 0 1 -10.111 11.006 1 1 0 0 0 -.746.479 7.477 7.477 0 0 1 -5.972 3.565c1.767-2.303 1.829-3.85 1.829-4.05a1 1 0 0 0 -.624-.927c-3.992-1.621-6.376-5.386-6.376-10.073a11.013 11.013 0 0 1 11-11z"/><path d="m16.406 29.931a9.716 9.716 0 0 0 8.3 4.154 9.431 9.431 0 0 0 1.455-.1 1 1 0 0 0 .543-1.693 10.036 10.036 0 0 1 -2.564-3.709 12.54 12.54 0 0 0 6.86-11.583 13 13 0 0 0 -26 0 13.358 13.358 0 0 0 11.406 12.931zm1.594-23.931a11.013 11.013 0 0 1 11 11c0 4.687-2.384 8.452-6.376 10.073a1 1 0 0 0 -.624.927c0 .2.062 1.747 1.828 4.05a7.478 7.478 0 0 1 -5.971-3.565 1 1 0 0 0 -.746-.479 11.34 11.34 0 0 1 -10.111-11.006 11.013 11.013 0 0 1 11-11z"/><path d="m18 11a3 3 0 0 1 0 6h-1v4h2v-2.1a5 5 0 1 0 -6-4.9h2a3 3 0 0 1 3-3z"/><path d="m17 23h2v2h-2z"/><path d="m46 9a3 3 0 0 1 0 6h-1v4h2v-2.1a5 5 0 1 0 -6-4.9h2a3 3 0 0 1 3-3z"/><path d="m45 21h2v2h-2z"/></g></svg>