<svg id="Layer_35" enable-background="new 0 0 64 64" height="512" viewBox="0 0 64 64" width="512" xmlns="http://www.w3.org/2000/svg"><path d="m13 47 4 4 1 1-8.76 8.76c-.79.79-1.87 1.24-3 1.24-1.17 0-2.23-.48-3-1.24-.76-.77-1.24-1.83-1.24-3 0-1.13.45-2.21 1.24-3l8.76-8.76z" fill="#cf9e76"/><path d="m20.58 47.42-3.58 3.58-4-4 3.58-3.58c1.08 1.57 2.43 2.92 4 4z" fill="#ccd1d9"/><circle cx="29" cy="35" fill="#fcd770" r="15"/><circle cx="29" cy="35" fill="#69d6f4" r="11"/><path d="m26 11v6l-2.71.68c-.04.1-.07.2-.12.3l1.65 2.61v.01c-3.16.91-5.89 2.83-7.82 5.4h-6l-.68-2.71c-.1-.04-.2-.07-.3-.12l-2.38 1.44-4.25-4.25 1.44-2.38c-.05-.1-.08-.2-.12-.3l-2.71-.68v-6l2.71-.68c.04-.1.07-.2.12-.3l-1.44-2.38 4.25-4.25 2.38 1.44c.1-.05.2-.08.3-.12l.68-2.71h6l.68 2.71c.1.04.2.07.3.12l2.38-1.44 4.25 4.25-1.44 2.38c.05.1.08.2.12.3zm-6 3c0-3.31-2.69-6-6-6s-6 2.69-6 6 2.69 6 6 6 6-2.69 6-6z" fill="#ffc729"/><path d="m39.87 36.61c1.24-.89 2.62-1.58 4.11-2.02 1.27-.38 2.62-.59 4.02-.59 7.73 0 14 6.27 14 14s-6.27 14-14 14c-7.36 0-13.39-5.68-13.95-12.89-.04-.37-.05-.74-.05-1.11 0-1.19.15-2.34.43-3.44.82-3.26 2.79-6.06 5.44-7.95z" fill="#e6e9ed"/><path d="m43.11 29.97c-1.83-.11-3.57-.58-5.15-1.34-1.88-.9-3.54-2.21-4.84-3.82-1.12-1.38-1.98-2.98-2.51-4.72-.4-1.29-.61-2.67-.61-4.09 0-7.73 6.27-14 14-14s14 6.27 14 14-6.27 14-14 14c-.3 0-.6-.01-.89-.03z" fill="#e6e9ed"/><g fill="#b4dd7f"><path d="m52 9v14h-4v-10-4z"/><path d="m48 13v10h-4v-8-2z"/><path d="m40 15h4v8h-4z"/><path d="m40 15v8h-4v-12h4z"/></g><path d="m55.43 40.57c-1.25-1.25-4.26-.38-7.43 1.92-3.17-2.3-6.18-3.17-7.43-1.92s-.38 4.26 1.92 7.43c-2.3 3.17-3.17 6.18-1.92 7.43s4.26.38 7.43-1.92c3.17 2.3 6.18 3.17 7.43 1.92s.38-4.26-1.92-7.43c2.3-3.17 3.17-6.18 1.92-7.43z" fill="#ff826e"/><path d="m21 14c0-3.859-3.14-7-7-7s-7 3.141-7 7 3.14 7 7 7 7-3.141 7-7zm-7 5c-2.757 0-5-2.243-5-5s2.243-5 5-5 5 2.243 5 5-2.243 5-5 5z"/><path d="m53 8h-6v4h-4v2h-2v-4h-6v14h18zm-14 14h-2v-10h2zm2-6h2v6h-2zm4 6v-8h2v8zm6 0h-2v-12h2z"/><path d="m56.133 39.867c-1.702-1.702-4.969-.714-8.133 1.417-3.164-2.13-6.432-3.118-8.133-1.417s-.713 4.968 1.417 8.133c-2.13 3.165-3.118 6.432-1.417 8.133.6.6 1.394.866 2.31.866 1.682 0 3.774-.902 5.823-2.281 2.049 1.379 4.141 2.281 5.823 2.281.916 0 1.71-.267 2.31-.866 1.701-1.701.713-4.968-1.417-8.133 2.13-3.165 3.117-6.432 1.417-8.133zm-14.852 1.414c.188-.188.502-.285.918-.285.938 0 2.402.511 4.093 1.556-.682.555-1.346 1.147-1.97 1.77-.625.625-1.219 1.292-1.775 1.976-1.513-2.446-1.879-4.403-1.266-5.017zm6.719 2.457c.737.573 1.497 1.232 2.263 1.998s1.433 1.527 2.006 2.264c-.573.737-1.24 1.498-2.006 2.264s-1.526 1.432-2.263 2.005c-.737-.573-1.497-1.24-2.263-2.005-.766-.766-1.433-1.527-2.006-2.264.573-.737 1.24-1.498 2.006-2.264s1.526-1.425 2.263-1.998zm-6.719 10.981c-.613-.613-.248-2.571 1.266-5.017.556.684 1.15 1.351 1.775 1.976.626.626 1.295 1.216 1.979 1.772-2.447 1.515-4.406 1.881-5.02 1.269zm13.438 0c-.613.616-2.573.248-5.022-1.269.685-.556 1.354-1.147 1.98-1.772.625-.625 1.219-1.292 1.775-1.976 1.514 2.446 1.88 4.403 1.267 5.017zm-1.266-8.421c-.556-.684-1.15-1.351-1.775-1.976-.623-.623-1.288-1.216-1.97-1.77 1.692-1.045 3.155-1.556 4.093-1.556.416 0 .73.098.918.285.613.614.247 2.571-1.266 5.017z"/><circle cx="48" cy="48" r="1"/><path d="m48 33c-1.064 0-2.102.115-3.104.327-.084-.79-.233-1.574-.436-2.35 8.057-.246 14.54-6.861 14.54-14.977 0-8.271-6.729-15-15-15s-15 6.729-15 15c0 1.03.105 2.036.304 3.009-.101-.002-.204-.009-.304-.009-1.281 0-2.522.168-3.717.454l-.676-1.075 2.393-.598v-7.562l-2.416-.603 1.281-2.136-5.347-5.346-2.134 1.281-.603-2.415h-7.562l-.603 2.416-2.135-1.281-5.347 5.345 1.281 2.136-2.415.603v7.562l2.416.603-1.282 2.136 5.347 5.346 2.134-1.281.604 2.415h4.946c-1.368 2.357-2.165 5.084-2.165 8 0 3.025.859 5.846 2.324 8.261l-2.324 2.325-1-1-9.464 9.464c-.991.99-1.536 2.306-1.536 3.708 0 2.89 2.352 5.242 5.243 5.242 1.399 0 2.716-.545 3.707-1.535l9.464-9.465-1-1 2.324-2.324c2.415 1.465 5.237 2.324 8.262 2.324 1.415 0 2.827-.2 4.213-.583 1.162 7.123 7.341 12.583 14.787 12.583 8.271 0 15-6.729 15-15s-6.729-15-15-15zm-14.404 10.854c-1.422.74-2.998 1.146-4.596 1.146-5.514 0-10-4.486-10-10s4.486-10 10-10c1.214 0 2.404.228 3.544.662 1.297 1.536 2.899 2.8 4.708 3.716 1.141 1.67 1.748 3.607 1.748 5.622 0 .335-.03.696-.076 1.085-2.528 1.93-4.425 4.636-5.328 7.769zm7.394-9.106c-.031-1.481-.325-2.926-.881-4.278.73.196 1.476.35 2.245.435.303.984.496 1.986.577 2.995-.668.241-1.32.518-1.941.848zm3.01-31.748c7.168 0 13 5.832 13 13s-5.832 13-13 13-13-5.832-13-13 5.832-13 13-13zm-32.219 22-.487-1.949-.203-.535-1.142-.464-2.158 1.296-3.138-3.139 1.296-2.159-.5-1.22-2.449-.611v-4.438l2.446-.611.503-1.22-1.296-2.159 3.138-3.139 2.158 1.296 1.22-.496.612-2.452h4.438l.487 1.949.203.535 1.142.464 2.158-1.296 3.138 3.139-1.296 2.159.503 1.22 2.446.611v4.438l-1.949.487-.534.205-.472 1.15 1.26 2.004c-2.675 1.025-5.009 2.738-6.775 4.935zm-3.245 35.05c-.613.613-1.428.95-2.293.95-1.788 0-3.243-1.454-3.243-3.242 0-.867.337-1.681.95-2.293l8.05-8.051 4.586 4.586zm8.464-10.464-2.586-2.586 2.066-2.066c.761.958 1.628 1.825 2.586 2.586zm12-.586c-7.72 0-14-6.28-14-14s6.28-14 14-14c.286 0 .594.03.893.05.261.726.56 1.433.925 2.103-.6-.093-1.205-.153-1.818-.153-6.617 0-12 5.383-12 12s5.383 12 12 12c1.406 0 2.795-.271 4.112-.754-.068.576-.112 1.16-.112 1.754 0 .13.016.255.019.384-1.321.401-2.669.616-4.019.616zm19 12c-7.168 0-13-5.832-13-13s5.832-13 13-13 13 5.832 13 13-5.832 13-13 13z"/><path d="m33 34h2v2h-2z"/><path d="m25 34h2v2h-2z"/><path d="m29 34h2v2h-2z"/><path d="m21 34h2v2h-2z"/><path d="m11.293 50.707h2v2h-2z" transform="matrix(.707 -.707 .707 .707 -32.962 23.837)"/><path d="m5.722 56.329h1.899v2h-1.899z" transform="matrix(.707 -.707 .707 .707 -38.583 21.509)"/><path d="m8.464 53.535h2v2h-2z" transform="matrix(.707 -.707 .707 .707 -35.79 22.665)"/></svg>