<svg height="512" viewBox="0 0 64 64" width="512" xmlns="http://www.w3.org/2000/svg"><g id="World-Global-Student-Graduate-Learning"><path d="m48 45v5.11c-.45.42-.93.81-1.41 1.18a23.41 23.41 0 0 1 -3.01 2.04 25.825 25.825 0 0 1 -5.74 2.51 26.175 26.175 0 0 1 -6.84 1.13v-3.97l3-3v-4l2-2v-4l-5-5h-8l-4 4v3l2 2h4v4l2 2v6.83a26.856 26.856 0 0 1 -18.42-10.41l3.42-3.42v-3l3-3v-3l-5-5v-3h3l4-4v-4l4-4v-4l-3-3h-2.14a26.654 26.654 0 0 1 11.14-3.83v6.83l4 4h5l5 5v6l-2 2v3.33l-2 .67 3 1 3 3v5z" fill="#3d9ae2"/><path d="m56.99 29.66a26.968 26.968 0 0 0 -29.99-26.49v6.83l4 4h5l5 5v6l-2 2v4l1 1 2 2 1 1v5l5 5v5.11a15.612 15.612 0 0 0 1.18-1.12 26.935 26.935 0 0 0 6.62-10.99c.07-.24.14-.48.2-.72a25.626 25.626 0 0 0 .89-4.91 23.225 23.225 0 0 0 .11-2.37c0-.11 0-.23-.01-.34z" fill="#00ccb3"/><path d="m61 58.9v2.1h-9l-1.82-6.18.82-.82 3 1 .7-2.8 2.74 1.22a6 6 0 0 1 3.56 5.48z" fill="#898890"/><path d="m54.7 52.2-.7 2.8-3-1-1-2 2-1z" fill="#787680"/><path d="m50.18 54.82 1.82 6.18h-6l1.82-6.18 1.18 1.18z" fill="#acabb1"/><path d="m50 52 1 2-.82.82-1.18 1.18-1.18-1.18-.82-.82 1-2z" fill="#acabb1"/><path d="m46.59 51.29-.59-.29-2.7 1.2.28 1.13.42 1.67 3-1 1-2z" fill="#787680"/><path d="m47 54-3 1-.42-1.67-.28-1.13-2.74 1.22a6 6 0 0 0 -3.56 5.48v2.1h9l1.82-6.18z" fill="#898890"/><path d="m56 32.67v5.33h-14v-5.33l7 2.33z" fill="#898890"/><path d="m61 31-12 4-12-4 12-4z" fill="#acabb1"/><g fill="#00ccb3"><path d="m36 40v4l-2 2v4l-3 3v3.97c-.33.02-.66.03-1 .03a26.87 26.87 0 0 1 -3-.17v-6.83l-2-2v-4h-4l-2-2v-3l3-3 1-1h8z"/><path d="m36 23v3l-2 2h-2v-4l-2-2v-2h6z"/><path d="m21 10v4l-4 4v4l-4 4h-3v3l5 5v3l-3 3v3l-3.42 3.42a26.979 26.979 0 0 1 7.28-39.42h2.14z"/></g><path d="m42 39h-1a2 2 0 0 0 0 4h2v-4z" fill="#ffb655"/><path d="m57 39h-2v4h2a2 2 0 0 0 0-4z" fill="#ffb655"/><path d="m52 48v3l-2 1h-2l-1.41-.71-.59-.29v-3z" fill="#ffc477"/><path d="m52 48v1.32a6.958 6.958 0 0 1 -6 0v-1.32z" fill="#ffb655"/><path d="m42 38v4a7 7 0 0 0 14 0v-4z" fill="#ffc477"/><path d="m45 40h2v2h-2z"/><path d="m51 40h2v2h-2z"/><path d="m62 37v-6a1.014 1.014 0 0 0 -.68-.95l-12-4a1 1 0 0 0 -.64 0l-12 4a1 1 0 0 0 0 1.9l4.32 1.44v4.61a3 3 0 0 0 0 6h.26a8.06 8.06 0 0 0 3.74 4.92v1.43l-4.85 2.16a7 7 0 0 0 -4.15 6.39v2.1a1 1 0 0 0 1 1h24a1 1 0 0 0 1-1v-2.1a7 7 0 0 0 -4.15-6.39l-4.85-2.16v-1.43a8.06 8.06 0 0 0 3.74-4.92h.26a3 3 0 0 0 0-6v-4.61l3-1v4.61zm-21 5a1 1 0 0 1 0-2zm4.98 10.11.68.34-.37.73-1.58.53-.24-.94zm-.73 7.89h-7.25v-1.1a5 5 0 0 1 2.97-4.57l1.65-.73.41 1.64a1.017 1.017 0 0 0 .49.64 1 1 0 0 0 .48.12 1.185 1.185 0 0 0 .32-.05l2.36-.79zm2.09 0 .96-3.29a.99.99 0 0 0 1.4 0l.96 3.29zm.88-6.2.4-.8h.76l.4.8-.78.79zm2.78-3.42-1.24.62h-1.52l-1.24-.62v-.64a7.822 7.822 0 0 0 4 0zm3 5.62a1 1 0 0 0 .48-.12 1.017 1.017 0 0 0 .49-.64l.41-1.64 1.65.73a5 5 0 0 1 2.97 4.57v1.1h-7.25l-1.43-4.84 2.36.79a1.185 1.185 0 0 0 .32.05zm-.47-3.23-.24.94-1.58-.53-.37-.73.68-.34zm1.47-10.77a6 6 0 0 1 -12 0v-3h12zm0-5h-12v-2.95l5.68 1.9a1.049 1.049 0 0 0 .64 0l5.68-1.9zm3 4a1 1 0 0 1 -1 1v-2a1 1 0 0 1 1 1zm-9-7.05-8.84-2.95 8.84-2.95 8.84 2.95z"/><path d="m37 44v-4a1 1 0 0 0 -.293-.707l-5-5a1 1 0 0 0 -.707-.293h-8a1 1 0 0 0 -.707.293l-4 4a1 1 0 0 0 -.293.707v3a1 1 0 0 0 .293.707l2 2a1 1 0 0 0 .707.293h3v3a1 1 0 0 0 .293.707l1.707 1.707v5.278a26 26 0 0 1 -16.082-9.192l2.789-2.789a1 1 0 0 0 .293-.711v-2.586l2.707-2.707a1 1 0 0 0 .293-.707v-3a1 1 0 0 0 -.293-.707l-4.707-4.707v-1.586h2a1 1 0 0 0 .707-.293l4-4a1 1 0 0 0 .293-.707v-3.586l3.707-3.707a1 1 0 0 0 .293-.707v-4a1 1 0 0 0 -.293-.707l-2.8-2.8a25.765 25.765 0 0 1 7.093-2.185v5.692a1 1 0 0 0 .293.707l4 4a1 1 0 0 0 .707.293h4.586l4.414 4.414v5.172l-1.707 1.707 1.414 1.414 2-2a1 1 0 0 0 .293-.707v-6a1 1 0 0 0 -.293-.707l-5-5a1 1 0 0 0 -.707-.293h-4.586l-3.414-3.414v-5.5c.661-.052 1.326-.086 2-.086a26.136 26.136 0 0 1 25.716 22.146l1.979-.292a28 28 0 1 0 -27.695 32.146 28.4 28.4 0 0 0 4.146-.3l-.292-1.978q-.919.135-1.854.2v-2.508l2.707-2.707a1 1 0 0 0 .293-.707v-3.586l1.707-1.707a1 1 0 0 0 .293-.707zm-20.831-36h1.417l2.414 2.414v3.172l-3.707 3.707a1 1 0 0 0 -.293.707v3.586l-3.414 3.414h-2.586a1 1 0 0 0 -1 1v3a1 1 0 0 0 .293.707l4.707 4.707v2.172l-2.707 2.707a1 1 0 0 0 -.293.707v2.586l-2.3 2.3a25.951 25.951 0 0 1 7.469-36.886zm18.831 35.586-1.707 1.707a1 1 0 0 0 -.293.707v3.586l-2.707 2.707a1 1 0 0 0 -.293.707v3c-.674 0-1.339-.034-2-.085v-5.915a1 1 0 0 0 -.293-.707l-1.707-1.707v-3.586a1 1 0 0 0 -1-1h-3.586l-1.414-1.414v-2.172l3.414-3.414h7.172l4.414 4.414z"/><path d="m32 29h2a1 1 0 0 0 .707-.293l2-2a1 1 0 0 0 .293-.707v-6a1 1 0 0 0 -1-1h-6a1 1 0 0 0 -1 1v2a1 1 0 0 0 .293.707l1.707 1.707v3.586a1 1 0 0 0 1 1zm-1-8h4v4.586l-1.414 1.414h-.586v-3a1 1 0 0 0 -.293-.707l-1.707-1.707z"/></g></svg>